<svg fill="none" xmlns="http://www.w3.org/2000/svg" viewBox="0 0 24 24">
  <g clip-path="url(#clip0)" fill="#fff">
    <path d="M21 11V5 4h-2V3l-1-1h-1V1l-1-1H6v1h10v18H3V1h2V0H3v20h2v1l1 1h1v1l1 1h13V12v11H8v-1h10l1-1v-5h-1v5H6v-1h10l1-1V3h1v12h1V5h2v6z"/>
    <path d="M12 4a2 2 0 10-4 0 2 2 0 004 0zM8 4a1 1 0 113 0 1 1 0 01-3 0zM15 4V3h-2v1h2zM7 3H5v1h2V3zM5 7h9-8-1zM14 8H6v1h8V8zM14 10H6v1h8v-1zM14 12H6h8zM14 13H6v1h8v-1zM14 15h-1l-1 2h-2l1 1h1l2-2v-1z"/>
  </g>
  <defs>
    <clipPath id="clip0">
      <path fill="#fff" d="M0 0h24v24H0z"/>
    </clipPath>
  </defs>
</svg>
