<svg fill="none" xmlns="http://www.w3.org/2000/svg" viewBox="0 0 24 24">
  <g clip-path="url(#clip0)" fill="#fff">
    <path d="M19 6V5h1V4h-1l-1 1 1 1 1 1h-2l1 1h1V7l-1-1zM5 6L4 5h2L5 4H4v1l1 1v1H4v1h1l1-1-1-1z"/>
    <path d="M21 9a4 4 0 10-4-6 5 5 0 00-9 0L5 2a4 4 0 00-2 7l-3 3v12h24V12l-3-3zm-4-4V4a3 3 0 11-1 3l1-2zm0 4l-1 1-1-1 1-1 1 1zm-5-8a4 4 0 110 8 4 4 0 010-8zm-2 8l-2 1-1-1 1-1 2 1zM2 6a3 3 0 015-2l1 3a3 3 0 01-6-1zm4 17H1V12l2-2h4l-1 3v10zm11 0H7V13c0-2 2-3 3-3h4c1 0 3 1 3 3v10zm6 0h-5V13l-1-3h4l2 2v11z"/>
    <path d="M14 6l-2-2a1 1 0 111 0h1l-1-2h-1a2 2 0 000 3 1 1 0 110 1h-1l1 2h1l1-2z"/>
  </g>
  <defs>
    <clipPath id="clip0">
      <path fill="#fff" d="M0 0h24v24H0z"/>
    </clipPath>
  </defs>
</svg>
