<svg width="12" height="12" viewBox="0 0 12 12" fill="none" xmlns="http://www.w3.org/2000/svg">
<path d="M8 10.7187C7.38281 10.9766 6.71094 11.125 6 11.125C4.75781 11.125 3.625 10.6797 2.73438 9.95312C2.73438 9.95312 2.80469 10 2.85156 10.0391C3.83594 7.89844 6.875 6.83594 6.875 6.83594C6.88281 6.83594 6.89844 6.82812 6.90625 6.82812C7.625 8.70312 7.92188 10.2656 8 10.7187ZM6.55469 5.97656C6.49219 6 6.42188 6.01562 6.35156 6.03906C6.35156 6.03906 3.58594 6.92969 2.1875 9.42187C1.375 8.51562 0.875 7.3125 0.875 6C0.875 5.94531 0.875 5.89062 0.882813 5.83594C0.96875 5.83594 3.5 5.89844 6.14063 5.10937C6.28906 5.39844 6.42969 5.6875 6.55469 5.97656ZM5.71875 4.32031C3.25781 4.96875 1.11719 4.94531 0.984375 4.94531C1.32031 3.35937 2.38281 2.03906 3.8125 1.36719C3.88281 1.46094 4.82813 2.74219 5.71875 4.32031ZM11.0625 6.8125C10.8281 8.24219 10.0156 9.47656 8.86719 10.25C8.8125 9.94531 8.53906 8.4375 7.86719 6.58594C9.52344 6.32812 10.9531 6.78125 11.0625 6.8125ZM4.77344 1.02344C4.76563 1.02344 4.75781 1.03125 4.75781 1.03125C4.76563 1.02344 4.76563 1.02344 4.77344 1.02344ZM9.38281 2.15625C9.36719 2.17969 8.64062 3.28906 6.71094 4.00781C5.83594 2.39844 4.86719 1.125 4.78906 1.02344C5.17969 0.929687 5.58594 0.874999 6 0.874999C7.29688 0.874999 8.48438 1.35937 9.38281 2.15625ZM11.125 5.94531C11.0625 5.9375 9.32031 5.55469 7.55469 5.78125C7.51563 5.69531 7.48438 5.60156 7.44531 5.51562C7.33594 5.26562 7.21875 5.01562 7.10156 4.77344C9.125 3.94531 9.94531 2.75781 9.96094 2.74219C10.6797 3.61719 11.1094 4.73437 11.125 5.94531ZM12 6C12 2.6875 9.3125 -5.96046e-07 6 -5.96046e-07C2.6875 -5.96046e-07 0 2.6875 0 6C0 9.3125 2.6875 12 6 12C9.3125 12 12 9.3125 12 6Z" fill="#00AEFF"/>
</svg>
