<svg width="12" height="12" viewBox="0 0 12 12" fill="none" xmlns="http://www.w3.org/2000/svg">
<path d="M9.75 -5.96046e-07H2.25C1.00781 -5.96046e-07 0 1.00781 0 2.25V9.75C0 10.9922 1.00781 12 2.25 12H6.40625V7.35156H4.84375V5.53906H6.40625V4.20312C6.40625 2.65625 7.35938 1.8125 8.74219 1.8125C9.39844 1.8125 9.96875 1.85937 10.1328 1.88281V3.5L9.17969 3.50781C8.42188 3.50781 8.28125 3.85937 8.28125 4.38281V5.53906H10.0703L9.83594 7.35156H8.28125V12H9.75C10.9922 12 12 10.9922 12 9.75V2.25C12 1.00781 10.9922 -5.96046e-07 9.75 -5.96046e-07Z" fill="#00AEFF"/>
</svg>
