<svg width="168" height="53" viewBox="0 0 168 53" fill="none" xmlns="http://www.w3.org/2000/svg">
<path d="M21.8157 43.2684V29.0248C21.8157 23.6251 20.3983 19.3009 13.9701 19.3009C11.3134 19.3009 9.43971 19.8144 7.18705 21.231V0.855318C7.18705 0.391427 6.78229 0 6.30173 0H0.88605C0.404755 0 0 0.391427 0 0.855318V43.2676C0 43.7316 0.455541 44.1713 0.936099 44.1713H6.30173C6.78229 44.1713 7.18705 43.7316 7.18705 43.2676V26.4113C8.70526 25.6291 10.0726 25.0431 11.3634 25.0431C14.0716 25.0431 14.6287 26.0199 14.6287 29.0248V43.2684C14.6287 43.7323 15.0335 44.1719 15.5148 44.1719H20.8797C21.386 44.1726 21.8157 43.733 21.8157 43.2684ZM167.115 23.2109V20.7678C167.115 20.1576 166.635 19.644 166.027 19.644H154.967C147.222 19.644 143.908 22.8933 143.908 27.7305V28.0721C143.908 29.7828 144.515 31.9815 145.932 33.1785C144.818 34.0331 143.983 35.2309 143.983 36.8186C143.983 38.211 144.642 39.9209 146.237 40.8005C144.338 42.1935 143.579 43.8302 143.579 45.5893V45.9309C143.579 50.4257 147.476 52.8936 154.842 52.8936C162.662 52.8936 166.459 50.6217 166.459 45.9309V45.5893C166.459 41.4845 163.802 40.311 156.082 38.6998L151.07 37.6242C150.007 37.404 149.754 37.1106 149.754 36.4265C149.754 36.0358 149.88 35.7424 150.362 35.4497C151.247 35.7913 152.892 36.0848 154.968 36.0848C161.903 36.0848 165.927 33.6424 165.927 28.0714V27.7298C165.927 26.7046 165.496 25.3357 164.964 24.5784L166.331 24.1387C166.863 23.9675 167.115 23.797 167.115 23.2109ZM158.915 28.0721C158.915 29.9291 158.08 31.0772 154.967 31.0772C151.6 31.0772 150.942 29.5384 150.942 28.0721V27.7305C150.942 25.9715 151.829 24.6523 154.967 24.6523C158.13 24.6523 158.915 25.9715 158.915 27.7305V28.0721ZM159.144 45.9316C159.144 47.2018 158.486 48.1062 154.84 48.1062C151.423 48.1062 150.41 47.3737 150.41 45.9316V45.59C150.41 44.0747 150.765 43.3905 151.297 42.6823L154.587 43.3664C158.561 44.221 159.143 44.7587 159.143 45.59V45.9316H159.144ZM142.262 43.2684V29.0248C142.262 23.6251 140.844 19.3009 134.416 19.3009C131.581 19.3009 129.633 19.8628 127.202 21.5244V20.4979C127.202 20.034 126.797 19.6432 126.317 19.6432H121.331C120.851 19.6432 120.445 20.034 120.445 20.4979V43.2684C120.445 43.7323 120.901 44.1719 121.382 44.1719H126.746C127.229 44.1719 127.633 43.7323 127.633 43.2684V26.4113C129.152 25.6291 130.518 25.0431 131.81 25.0431C134.517 25.0431 135.075 26.0199 135.075 29.0248V43.2684C135.075 43.7323 135.48 44.1719 135.985 44.1719H141.326C141.831 44.1726 142.262 43.733 142.262 43.2684ZM118.598 43.3174V37.9184C118.598 37.4544 118.217 37.1113 117.712 37.1113H112.524C112.043 37.1113 111.613 37.4537 111.613 37.9184V43.3174C111.613 43.7819 112.043 44.1726 112.524 44.1726H117.712C118.217 44.1726 118.598 43.7819 118.598 43.3174ZM110.549 37.3564C110.549 35.0604 109.765 32.8361 106.07 30.7845L100.577 27.7298C99.6914 27.2169 99.2108 26.8751 99.2108 26.2394C99.2108 25.2626 99.8179 24.9933 101.564 24.9933C103.818 24.9933 107.638 25.3847 108.904 25.5552C108.954 25.5552 109.006 25.5552 109.057 25.5552C109.487 25.5552 109.791 25.2626 109.791 24.7489V21.28C109.791 20.7664 109.487 20.4247 108.955 20.2784C106.702 19.7406 104.576 19.3009 101.059 19.3009C94.9343 19.3009 91.9723 21.6218 91.9723 25.9459C91.9723 28.7066 93.4405 30.9046 95.9205 32.2735L101.691 35.4739C102.932 36.1579 103.336 36.646 103.336 37.2818C103.336 38.3815 102.83 38.9434 100.704 38.9434C99.2866 38.9434 95.5665 38.65 93.1615 38.3567C93.1372 38.3567 93.0357 38.3567 92.9849 38.3567C92.4535 38.3567 92.1496 38.7239 92.1496 39.1636V42.6325C92.1496 43.1462 92.4535 43.4879 92.9849 43.61C95.2625 44.2202 98.6288 44.5627 101.059 44.5627C107.538 44.5634 110.549 41.3872 110.549 37.3564ZM90.833 51.7463V10.2375C90.833 9.77369 90.4799 9.38226 89.9985 9.38226H84.5828C84.1016 9.38226 83.646 9.77369 83.646 10.2375V51.7463C83.646 52.2101 84.1016 52.6257 84.5828 52.6257H89.9985C90.4799 52.6257 90.833 52.2101 90.833 51.7463ZM82.3802 33.0315V30.5642C82.3802 24.0897 78.7109 19.3016 71.4215 19.3016C64.3853 19.3016 60.2098 23.6747 60.2098 30.5642V33.5444C60.2098 41.8262 65.9801 44.5627 71.3458 44.5627C75.1931 44.5627 77.5974 44.2209 80.4322 43.5369C81.191 43.3664 81.3683 43.0481 81.3683 42.3647V39.1154C81.3683 38.6515 81.0144 38.4312 80.533 38.4312C80.4822 38.4312 80.4315 38.4312 80.3807 38.4312C78.6094 38.6024 74.6619 38.8227 71.8771 38.8227C68.3844 38.8227 67.3217 36.5991 67.3217 34.156V34.0587H81.4441C82.0263 34.058 82.3802 33.6915 82.3802 33.0315ZM75.3705 29.7828H67.3217V29.6116C67.3217 26.4844 68.9414 24.8718 71.3966 24.8718C73.8766 24.8718 75.3698 26.4596 75.3698 29.6116V29.7828H75.3705ZM60.2347 43.3664V40.019C60.2347 39.5551 59.8808 39.2866 59.2987 39.2866H57.1226C55.8067 39.2866 55.6543 38.9931 55.6543 37.2832V24.8236H59.2987C59.7799 24.8236 60.1847 24.4321 60.1847 23.9682V20.4986C60.1847 20.0348 59.7799 19.644 59.2987 19.644H55.6543V15.1003C55.6543 14.6847 55.3004 14.392 54.8706 14.392C54.8198 14.392 54.769 14.392 54.7433 14.392L49.3276 15.2708C48.8471 15.3688 48.4423 15.6622 48.4423 16.1261V19.644H44.8988C44.3925 19.644 43.9627 20.0837 43.9627 20.5476V23.3814C43.9627 23.8453 44.3932 24.1877 44.8988 24.2609L48.4423 24.8228V37.2342C48.4423 43.3174 50.9981 44.5627 55.8825 44.5627C57.1733 44.5627 58.0594 44.4163 59.4002 44.2209C59.9316 44.1237 60.2347 43.7819 60.2347 43.3664ZM45.2521 33.4229V30.4428C45.2521 23.6258 41.3546 19.3016 34.1668 19.3016C27.0048 19.3016 23.0558 23.6258 23.0558 30.4428V33.4229C23.0558 40.2392 27.004 44.5634 34.1668 44.5634C41.3546 44.5634 45.2521 40.2392 45.2521 33.4229ZM38.115 33.4229C38.115 36.8925 36.7492 38.7005 34.1676 38.7005C31.6109 38.7005 30.1943 36.8925 30.1943 33.4229V30.4428C30.1943 26.9732 31.6117 25.2143 34.1676 25.2143C36.7492 25.2143 38.115 26.9739 38.115 30.4428V33.4229Z" fill="#00AEFF"/>
</svg>
