<svg width="13" height="10" viewBox="0 0 13 10" fill="none" xmlns="http://www.w3.org/2000/svg">
<path d="M12.6553 1.1875C12.2021 1.38281 11.71 1.52344 11.2021 1.57812C11.7256 1.26562 12.124 0.773437 12.3115 0.1875C11.8271 0.476562 11.2803 0.6875 10.71 0.796875C10.249 0.304687 9.59277 -2.38419e-07 8.86621 -2.38419e-07C7.46777 -2.38419e-07 6.34277 1.13281 6.34277 2.52344C6.34277 2.71875 6.36621 2.91406 6.40527 3.10156C4.31152 2.99219 2.44434 1.99219 1.20215 0.460937C0.983398 0.835937 0.858398 1.26562 0.858398 1.73437C0.858398 2.60937 1.30371 3.38281 1.9834 3.83594C1.56934 3.82031 1.17871 3.70312 0.842773 3.51562C0.842773 3.52344 0.842773 3.53906 0.842773 3.54687C0.842773 4.77344 1.70996 5.78906 2.86621 6.02344C2.65527 6.07812 2.42871 6.10937 2.20215 6.10937C2.03809 6.10937 1.88184 6.09375 1.72559 6.07031C2.0459 7.07031 2.97559 7.79687 4.08496 7.82031C3.21777 8.5 2.13184 8.89844 0.952148 8.89844C0.741211 8.89844 0.545898 8.89062 0.342773 8.86719C1.45996 9.58594 2.78809 10 4.21777 10C8.8584 10 11.3975 6.15625 11.3975 2.82031C11.3975 2.71094 11.3975 2.60156 11.3896 2.49219C11.8818 2.13281 12.3115 1.6875 12.6553 1.1875Z" fill="#00AEFF"/>
</svg>
